<svg width="32" height="32" viewBox="0 0 32 32" fill="none" xmlns="http://www.w3.org/2000/svg">
<g clip-path="url(#clip0_351042_23)">
<path d="M31.5 16C31.5 24.5604 24.5604 31.5 16 31.5C7.43959 31.5 0.5 24.5604 0.5 16C0.5 7.43959 7.43959 0.5 16 0.5C24.5604 0.5 31.5 7.43959 31.5 16Z" stroke="#BB4141"/>
<path d="M12.9401 23V21.632L16.6481 15.854C16.9241 15.422 17.1761 15.02 17.4041 14.648C17.6441 14.276 17.8361 13.886 17.9801 13.478C18.1361 13.058 18.2141 12.578 18.2141 12.038C18.2141 11.366 18.1061 10.838 17.8901 10.454C17.6741 10.07 17.2961 9.878 16.7561 9.878C16.3001 9.878 15.9461 10.004 15.6941 10.256C15.4421 10.508 15.2681 10.838 15.1721 11.246C15.0761 11.654 15.0281 12.092 15.0281 12.56V13.046H13.1021V12.542C13.1021 11.666 13.2161 10.916 13.4441 10.292C13.6841 9.656 14.0621 9.164 14.5781 8.816C15.1061 8.468 15.8021 8.294 16.6661 8.294C17.8421 8.294 18.7181 8.63 19.2941 9.302C19.8701 9.962 20.1581 10.88 20.1581 12.056C20.1581 12.68 20.0801 13.226 19.9241 13.694C19.7801 14.162 19.5881 14.6 19.3481 15.008C19.1081 15.416 18.8441 15.836 18.5561 16.268L15.2081 21.38H19.8161V23H12.9401Z" fill="#EEE3C1"/>
</g>
<defs>
<clipPath id="clip0_351042_23">
<rect width="32" height="32" fill="white"/>
</clipPath>
</defs>
</svg>
