<svg width="32" height="32" viewBox="0 0 32 32" fill="none" xmlns="http://www.w3.org/2000/svg">
<g clip-path="url(#clip0_350967_55)">
<path d="M31.5 16C31.5 24.5604 24.5604 31.5 16 31.5C7.43959 31.5 0.5 24.5604 0.5 16C0.5 7.43959 7.43959 0.5 16 0.5C24.5604 0.5 31.5 7.43959 31.5 16Z" stroke="#BB4141"/>
<path d="M15.5096 23V10.94C15.4976 10.952 15.3596 10.988 15.0956 11.048C14.8436 11.108 14.5556 11.168 14.2316 11.228C13.9076 11.288 13.6196 11.342 13.3676 11.39C13.1156 11.438 12.9836 11.462 12.9716 11.462V10.004C13.1756 9.956 13.4096 9.89 13.6736 9.806C13.9496 9.722 14.2256 9.62 14.5016 9.5C14.7896 9.38 15.0596 9.23 15.3116 9.05C15.5756 8.87 15.7976 8.66 15.9776 8.42H17.4356V23H15.5096Z" fill="#EEE3C1"/>
</g>
<defs>
<clipPath id="clip0_350967_55">
<rect width="32" height="32" fill="white"/>
</clipPath>
</defs>
</svg>
