<svg width="32" height="32" viewBox="0 0 32 32" fill="none" xmlns="http://www.w3.org/2000/svg">
<g clip-path="url(#clip0_351042_28)">
<path d="M31.5 16C31.5 24.5604 24.5604 31.5 16 31.5C7.43959 31.5 0.5 24.5604 0.5 16C0.5 7.43959 7.43959 0.5 16 0.5C24.5604 0.5 31.5 7.43959 31.5 16Z" stroke="#BB4141"/>
<path d="M16.4949 23.162C15.7029 23.162 15.0429 23.012 14.5149 22.712C13.9869 22.412 13.5909 21.98 13.3269 21.416C13.0629 20.852 12.9309 20.186 12.9309 19.418V18.932H14.8389C14.8389 18.98 14.8389 19.034 14.8389 19.094C14.8389 19.142 14.8389 19.196 14.8389 19.256C14.8509 19.688 14.8989 20.078 14.9829 20.426C15.0789 20.774 15.2409 21.05 15.4689 21.254C15.7089 21.458 16.0509 21.56 16.4949 21.56C16.9629 21.56 17.3169 21.452 17.5569 21.236C17.7969 21.008 17.9589 20.69 18.0429 20.282C18.1269 19.874 18.1689 19.406 18.1689 18.878C18.1689 18.11 18.0249 17.486 17.7369 17.006C17.4609 16.514 16.9689 16.244 16.2609 16.196C16.2249 16.184 16.1769 16.178 16.1169 16.178C16.0689 16.178 16.0269 16.178 15.9909 16.178V14.252C16.0269 14.252 16.0689 14.252 16.1169 14.252C16.1649 14.252 16.2069 14.252 16.2429 14.252C16.9269 14.228 17.4189 14.048 17.7189 13.712C18.0189 13.376 18.1689 12.818 18.1689 12.038C18.1689 11.378 18.0549 10.85 17.8269 10.454C17.6109 10.058 17.1729 9.86 16.5129 9.86C15.8529 9.86 15.4149 10.082 15.1989 10.526C14.9829 10.958 14.8629 11.516 14.8389 12.2C14.8389 12.248 14.8389 12.302 14.8389 12.362C14.8389 12.41 14.8389 12.458 14.8389 12.506H12.9309V12.02C12.9309 11.24 13.0629 10.574 13.3269 10.022C13.5909 9.47 13.9869 9.044 14.5149 8.744C15.0549 8.444 15.7209 8.294 16.5129 8.294C17.3169 8.294 17.9829 8.444 18.5109 8.744C19.0389 9.044 19.4349 9.476 19.6989 10.04C19.9629 10.592 20.0949 11.258 20.0949 12.038C20.0949 12.914 19.9029 13.616 19.5189 14.144C19.1469 14.672 18.6429 15.032 18.0069 15.224C18.4509 15.356 18.8229 15.584 19.1229 15.908C19.4349 16.232 19.6749 16.646 19.8429 17.15C20.0109 17.642 20.0949 18.218 20.0949 18.878C20.0949 19.742 19.9749 20.498 19.7349 21.146C19.4949 21.782 19.1109 22.28 18.5829 22.64C18.0549 22.988 17.3589 23.162 16.4949 23.162Z" fill="#EEE3C1"/>
</g>
<defs>
<clipPath id="clip0_351042_28">
<rect width="32" height="32" fill="white"/>
</clipPath>
</defs>
</svg>
