<svg width="24" height="24" viewBox="0 0 24 24" fill="none" xmlns="http://www.w3.org/2000/svg">
<path d="M21 16.83V11.163C21 10.119 21 9.59703 20.717 9.20403C20.488 8.88703 20.121 8.71803 19.467 8.49103C19.333 10.097 18.801 11.738 17.966 13.173C16.993 14.845 15.548 16.34 13.697 17.147C13.1615 17.3799 12.5839 17.5001 12 17.5001C11.4161 17.5001 10.8385 17.3799 10.303 17.147C8.452 16.34 7.007 14.845 6.034 13.173C5.40007 12.0822 4.94941 10.8948 4.7 9.65803C4.317 9.60103 4.024 9.63003 3.77 9.77103C3.66915 9.82767 3.57519 9.89579 3.49 9.97403C3 10.42 3 11.249 3 12.908V17.838C3 18.881 3 19.403 3.283 19.796C3.566 20.189 4.061 20.354 5.051 20.684L5.435 20.812C7.012 21.337 7.8 21.6 8.607 21.602C8.85 21.602 9.092 21.585 9.333 21.55C10.131 21.435 10.881 21.06 12.381 20.31C13.53 19.735 14.105 19.448 14.715 19.315C14.929 19.268 15.146 19.235 15.365 19.217C15.988 19.165 16.615 19.27 17.872 19.479C19.145 19.691 19.782 19.797 20.247 19.53C20.405 19.44 20.545 19.321 20.66 19.18C21 18.765 21 18.12 21 16.83Z" fill="#EEE3C1"/>
<path fill-rule="evenodd" clip-rule="evenodd" d="M12 2C8.686 2 6 4.552 6 7.7C6 10.824 7.915 14.469 10.903 15.772C11.2492 15.9223 11.6226 15.9998 12 15.9998C12.3774 15.9998 12.7508 15.9223 13.097 15.772C16.085 14.47 18 10.824 18 7.7C18 4.552 15.314 2 12 2ZM12 10C12.5304 10 13.0391 9.78929 13.4142 9.41421C13.7893 9.03914 14 8.53043 14 8C14 7.46957 13.7893 6.96086 13.4142 6.58579C13.0391 6.21071 12.5304 6 12 6C11.4696 6 10.9609 6.21071 10.5858 6.58579C10.2107 6.96086 10 7.46957 10 8C10 8.53043 10.2107 9.03914 10.5858 9.41421C10.9609 9.78929 11.4696 10 12 10Z" fill="#EEE3C1"/>
</svg>
